<svg xmlns="http://www.w3.org/2000/svg" viewBox="0 0 900.58 370.22"><defs><style>.a{fill:none;}.b{fill:#f58732;}.c{fill:#00a5d9;}.d{fill:#5ab946;}</style></defs><title>Artevelde University of Applied Sciences</title><rect class="a" width="900.58" height="370.22"/><path class="b" d="M145,168.32H132.71A12.25,12.25,0,1,1,145,156.07Zm-12.25-49a36.76,36.76,0,0,0,0,73.52h36.75V156.07a36.75,36.75,0,0,0-36.75-36.76"/><path class="c" d="M280.76,175a23.32,23.32,0,0,1-10.26,2.75c-5.26,0-7.88-1-7.88-6.26V170.4c0-6.13,2.25-9.14,11-9.14h7.13Zm-9.38-55.8a101.25,101.25,0,0,0-21.65,2.62,2.8,2.8,0,0,0-2.37,2.76v10.13a2,2,0,0,0,2.25,2.26h.62c3.88-.38,12.76-.88,20.77-.88,5.88,0,9.38,1.5,9.38,8.63v4.5h-6.75c-21.39,0-30.78,6.51-30.78,21.15v1.12c0,16.27,10.51,21.53,21.4,21.53a27.56,27.56,0,0,0,17.39-5.64v2a2.51,2.51,0,0,0,2.5,2.51h14a2.52,2.52,0,0,0,2.5-2.51V144.75c0-18.26-11.26-25.52-29.27-25.52"/><path class="c" d="M318.34,191.92h15.14a2.63,2.63,0,0,0,2.5-2.63V140.37A33.71,33.71,0,0,1,352.11,136h1c1.12,0,1.87-1.25,1.87-2.37V121.73a2.51,2.51,0,0,0-2.5-2.5,26.78,26.78,0,0,0-16.89,6v-2.5a2.51,2.51,0,0,0-2.5-2.5H318.21a2.5,2.5,0,0,0-2.5,2.5v66.56a2.74,2.74,0,0,0,2.63,2.63"/><path class="c" d="M373.29,171.65c0,17.76,7.25,21.4,21,21.4a53.62,53.62,0,0,0,9.89-1,2.54,2.54,0,0,0,2.37-2.49v-9.76c0-1.38-1-2.13-2.62-2.13h-6.13c-3.76,0-4.13-.88-4.13-5.88V135.37h10.26a2.51,2.51,0,0,0,2.5-2.5V122.73a2.5,2.5,0,0,0-2.5-2.5H393.68V107a2.14,2.14,0,0,0-2.25-2.13h-.38l-15.26,2.63a2.69,2.69,0,0,0-2.5,2.51v10.25h-10a2.74,2.74,0,0,0-2.63,2.63v8.25a2.92,2.92,0,0,0,2.63,2.63l10,1.63Z"/><path class="c" d="M436.11,149.38c0-9.13,4.63-13.88,11.51-13.88s11.27,4.63,11.27,13.88v.51H436.11Zm11.39,43.67a96.12,96.12,0,0,0,25.65-3c2.12-.5,2.63-1.38,2.63-3.38v-9.51c0-1.37-1-2-2.38-2H473c-5,.5-16.14,1.13-24,1.13-9.88,0-12.89-6.5-12.89-13.64v-.24H476c1.62,0,2.62-1.13,2.62-3v-7.25c0-18.9-10.38-32.91-30.9-32.91-19.89,0-31.65,12.76-31.65,32.91v8.75c0,24.16,16.26,32.16,31.4,32.16"/><path class="c" d="M518.35,193.05c14.65,0,15-2,18.14-13.14l15.77-56.81a1.6,1.6,0,0,0,.12-.74,2.11,2.11,0,0,0-2.13-2.13H533.74c-1.25,0-2.26,1.12-2.63,2.63l-10.76,49c-.37,1.88-1.13,2.63-2,2.63s-1.5-.75-1.88-2.63l-10.76-49c-.37-1.51-1.37-2.63-2.62-2.63H486.57a2,2,0,0,0-2,2.13,1.6,1.6,0,0,0,.12.74l15.64,56.81c3.13,11.14,3.95,13.14,18,13.14"/><path class="c" d="M578.19,149.38c0-9.13,4.63-13.88,11.51-13.88S601,140.13,601,149.38v.51H578.19Zm11.39,43.67a96.12,96.12,0,0,0,25.65-3c2.12-.5,2.63-1.38,2.63-3.38v-9.51c0-1.37-1-2-2.38-2h-.38c-5,.5-16.14,1.13-24,1.13-9.88,0-12.89-6.5-12.89-13.64v-.24h39.92c1.62,0,2.62-1.13,2.62-3v-7.25c0-18.9-10.38-32.91-30.9-32.91-19.89,0-31.65,12.76-31.65,32.91v8.75c0,24.16,16.26,32.16,31.4,32.16"/><path class="c" d="M651.8,96H636.54a2.62,2.62,0,0,0-2.63,2.5v90.83a2.73,2.73,0,0,0,2.63,2.63H651.8a2.52,2.52,0,0,0,2.38-2.63V98.46A2.41,2.41,0,0,0,651.8,96"/><path class="c" d="M687.23,151.27c0-8.77,2.25-15.27,11.13-15.27a92.93,92.93,0,0,1,10.26.63v39a68.43,68.43,0,0,1-10.26.76c-8.88,0-11.13-6.51-11.13-15.39Zm11.13,41.78A117.66,117.66,0,0,0,725,189.79c3.38-.74,3.88-1.62,3.88-3.62V98.46a2.63,2.63,0,0,0-2.63-2.5H711.12a2.51,2.51,0,0,0-2.5,2.5v21.65a85.34,85.34,0,0,0-10.26-.88c-21.14,0-31.4,12.38-31.4,32V161c0,20.27,11.14,32,31.4,32"/><path class="c" d="M784.85,149.89H762.08v-.51c0-9.13,4.63-13.89,11.51-13.89s11.26,4.64,11.26,13.89Zm-11.13-30.66c-19.9,0-31.66,12.76-31.66,32.91v8.75c0,24.15,16.26,32.16,31.4,32.16a95.58,95.58,0,0,0,25.65-3c2.13-.5,2.63-1.37,2.63-3.38v-9.5c0-1.38-1-2-2.38-2H799c-5,.5-16.14,1.13-24,1.13-9.89,0-12.89-6.51-12.89-13.64v-.25H802c1.63,0,2.63-1.13,2.63-3v-7.25c0-18.9-10.39-32.91-30.9-32.91"/><path class="c" d="M260,240.29h-2.09a.88.88,0,0,0-.85.85v18a13.58,13.58,0,0,1-5.77,1.67c-3.24,0-4.69-1.33-4.69-5.64V241.14a.86.86,0,0,0-.86-.85H243.7a.86.86,0,0,0-.85.85v14.05c0,5.68,2.31,8.88,7.43,8.88a12.9,12.9,0,0,0,6.79-2v.81a.82.82,0,0,0,.81.85H260a.83.83,0,0,0,.82-.85V241.14a.85.85,0,0,0-.82-.85"/><path class="c" d="M277.57,240a12.9,12.9,0,0,0-6.79,2v-.81a.82.82,0,0,0-.81-.85h-2.13a.82.82,0,0,0-.81.85v21.77a.85.85,0,0,0,.81.86h2.09a.88.88,0,0,0,.85-.86v-18a13.58,13.58,0,0,1,5.77-1.67c3.24,0,4.69,1.33,4.69,5.64v14a.86.86,0,0,0,.85.86h2.06a.86.86,0,0,0,.85-.86v-14c0-5.68-2.31-8.88-7.43-8.88"/><path class="c" d="M294.66,232.42h-2.17a.85.85,0,0,0-.86.85v2.41a.85.85,0,0,0,.86.85h2.17a.86.86,0,0,0,.86-.85v-2.41a.86.86,0,0,0-.86-.85"/><path class="c" d="M294.58,240.29h-2.05a.86.86,0,0,0-.86.85v21.78a.86.86,0,0,0,.86.85h2.05a.86.86,0,0,0,.85-.85V241.14a.85.85,0,0,0-.85-.85"/><path class="c" d="M319.52,240.29h-2.35c-.34,0-.64.25-.81.81l-4.91,18.61c-.26,1-.52,1.24-.9,1.24s-.64-.21-.89-1.24l-4.92-18.61c-.17-.56-.47-.81-.81-.81h-2.35a.66.66,0,0,0-.68.72.88.88,0,0,0,0,.3l5.77,20.33c.55,1.92.72,2.43,3.84,2.43s3.29-.51,3.84-2.43l5.77-20.33a.88.88,0,0,0,0-.3.66.66,0,0,0-.68-.72"/><path class="c" d="M338.61,250.36H327.3V250c0-4.61,2.05-6.7,5.72-6.7s5.59,1.87,5.59,6.7ZM333,240c-6.11,0-9.48,3.88-9.48,10v3.84c0,7.94,4.79,10.25,9.69,10.25a38.74,38.74,0,0,0,7.65-.73c.68-.13.85-.43.85-1v-1.45a.6.6,0,0,0-.68-.6h-.22a58.22,58.22,0,0,1-7.6.47c-3.92,0-5.93-1.88-5.93-7v-.59h14.3c.51,0,.81-.39.81-.95V250c0-6.06-3.15-10-9.39-10"/><path class="c" d="M357.58,240a10.18,10.18,0,0,0-6,2v-.9a.82.82,0,0,0-.81-.85h-2a.82.82,0,0,0-.81.85v21.77a.86.86,0,0,0,.81.86h2.09a.89.89,0,0,0,.86-.86V245a11,11,0,0,1,5.89-1.8c.6,0,.9-.25.9-.72v-1.75c0-.52-.3-.77-.9-.77"/><path class="c" d="M373.09,251.43l-4.23-2.52c-2-1.15-2.94-2-2.94-3.24,0-2.18,1.57-2.48,4-2.48s5.12.22,6.61.34h.13a.65.65,0,0,0,.73-.72V241.4a.83.83,0,0,0-.81-.86,40.23,40.23,0,0,0-6.66-.55c-4.4,0-7.73,1.24-7.73,5.68,0,2.69,1.75,4.52,4.35,6.1l4.31,2.57c2.44,1.44,3.21,2.26,3.21,3.54,0,2.3-1.45,3-4.23,3a67,67,0,0,1-6.7-.47h-.17a.69.69,0,0,0-.77.64v1.49c0,.47.34.73.89.86a33.37,33.37,0,0,0,6.75.64c4.78,0,8-1.84,8-6.19,0-2.52-1.15-4.36-4.69-6.45"/><path class="c" d="M386.59,240.29h-2a.86.86,0,0,0-.86.85v21.78a.86.86,0,0,0,.86.85h2a.86.86,0,0,0,.85-.85V241.14a.85.85,0,0,0-.85-.85"/><path class="c" d="M386.68,232.42H384.5a.85.85,0,0,0-.85.85v2.41a.85.85,0,0,0,.85.85h2.18a.85.85,0,0,0,.85-.85v-2.41a.85.85,0,0,0-.85-.85"/><path class="c" d="M405.72,261h-2.39c-1.71,0-2.3-.34-2.3-2.69v-14.9h4.61a.85.85,0,0,0,.85-.85v-1.46a.85.85,0,0,0-.85-.85H401v-4.65a.68.68,0,0,0-.64-.73h-.13l-2.22.34a.88.88,0,0,0-.77.86v4.18h-4.14a.75.75,0,0,0-.81.77v1.15a.77.77,0,0,0,.81.77l4.14.47v14.9c0,4.69,1.88,5.72,5.81,5.72a22.07,22.07,0,0,0,2.77-.21c.56-.09.77-.35.77-.73v-1.49c0-.43-.3-.6-.9-.6"/><path class="c" d="M428.53,240.29h-2.39a.86.86,0,0,0-.81.64l-5.21,19.51h-.68c-.3,0-.6-.09-.82-.94l-5-18.53a.87.87,0,0,0-.73-.68h-2.35a.68.68,0,0,0-.76.72.75.75,0,0,0,0,.3l5.68,19.52c.77,2.64,1.88,2.94,3.15,2.94h.6l-.42,1.75c-.73,3-1.79,3.63-4.23,3.63-.94,0-2.86-.17-3.8-.26h-.13c-.47,0-.81.22-.81.68v1.59c0,.42.39.55.9.68a18,18,0,0,0,3.58.38c4.91,0,6.49-1.71,7.82-6.32l7-24.59a.75.75,0,0,0,0-.3.66.66,0,0,0-.68-.72"/><path class="c" d="M459.58,253.65c0,4.4-1.79,7.13-5.76,7.13s-5.72-2.77-5.72-7.13v-3.24c0-4.4,1.75-7.13,5.72-7.13s5.76,2.77,5.76,7.13ZM453.82,240c-6.28,0-9.48,4.14-9.48,10.42v3.24c0,6.28,3.2,10.42,9.48,10.42s9.52-4.14,9.52-10.42v-3.24c0-6.28-3.24-10.42-9.52-10.42"/><path class="c" d="M479.41,232.68a9.7,9.7,0,0,0-2.39-.26c-3.76,0-6,1.37-6,5.93v3.08H466.9a.77.77,0,0,0-.81.77v1.15a.8.8,0,0,0,.81.77l4.14.47v18.59a.88.88,0,0,0,.85.85H474a.88.88,0,0,0,.81-.85V244.59h4.49a.74.74,0,0,0,.81-.73V242.2a.77.77,0,0,0-.81-.77h-4.49v-3.08c0-2.34.6-2.94,2.61-2.94h2.05c.47,0,.77-.17.77-.64v-1.41c0-.38-.34-.55-.81-.68"/><path class="c" d="M508.12,259.29a11.76,11.76,0,0,1-5.77,1.71c-2.47,0-3.93-.82-3.93-3.89v-.51c0-3,1.37-4.19,6.54-4.19h3.16ZM503.55,240a37.65,37.65,0,0,0-6.62.55c-.6.09-.89.34-.89.81v1.5c0,.56.38.68.76.68H497a62.18,62.18,0,0,1,6.53-.34c3.33,0,4.57,1.24,4.57,4.82v1.71H505c-7.6,0-10.29,2.31-10.29,6.92v.51c0,5.34,3.33,6.92,7,6.92A13,13,0,0,0,508.2,262v.93a.86.86,0,0,0,.85.86h2a.86.86,0,0,0,.85-.86V248c0-5-2.39-8-8.32-8"/><path class="c" d="M532.38,253.61c0,4.57-1.37,7.3-5.55,7.3a32.89,32.89,0,0,1-5-.43V243.57a32.15,32.15,0,0,1,5-.42c4.22,0,5.55,2.9,5.55,7.38ZM526.83,240a35.59,35.59,0,0,0-7.86,1c-.77.17-.9.43-.9,1v29.38a.78.78,0,0,0,.77.81H521a.81.81,0,0,0,.81-.81V263.6a31.46,31.46,0,0,0,5,.47c6.23,0,9.3-3.76,9.3-10.46v-3.08c0-6.4-2.94-10.54-9.3-10.54"/><path class="c" d="M555.87,253.61c0,4.57-1.37,7.3-5.55,7.3a32.89,32.89,0,0,1-5-.43V243.57a32.15,32.15,0,0,1,5-.42c4.22,0,5.55,2.9,5.55,7.38ZM550.32,240a35.59,35.59,0,0,0-7.86,1c-.77.17-.9.43-.9,1v29.38a.78.78,0,0,0,.77.81h2.18a.81.81,0,0,0,.81-.81V263.6a31.46,31.46,0,0,0,5,.47c6.23,0,9.3-3.76,9.3-10.46v-3.08c0-6.4-2.94-10.54-9.3-10.54"/><path class="c" d="M568.48,232.42h-2.22a.77.77,0,0,0-.77.81v29.68a.82.82,0,0,0,.77.86h2.22a.82.82,0,0,0,.77-.86V233.23a.78.78,0,0,0-.77-.81"/><path class="c" d="M579.33,232.42h-2.18a.85.85,0,0,0-.85.85v2.41a.85.85,0,0,0,.85.85h2.18a.85.85,0,0,0,.85-.85v-2.41a.85.85,0,0,0-.85-.85"/><path class="c" d="M579.24,240.29h-2a.86.86,0,0,0-.86.85v21.78a.86.86,0,0,0,.86.85h2a.86.86,0,0,0,.85-.85V241.14a.85.85,0,0,0-.85-.85"/><path class="c" d="M601.11,250.36H589.79V250c0-4.61,2.05-6.7,5.72-6.7s5.6,1.87,5.6,6.7ZM595.51,240c-6.1,0-9.47,3.88-9.47,10v3.84c0,7.94,4.78,10.25,9.69,10.25a38.63,38.63,0,0,0,7.64-.73c.68-.13.85-.43.85-1v-1.45a.6.6,0,0,0-.68-.6h-.21a58.45,58.45,0,0,1-7.6.47c-3.93,0-5.94-1.88-5.94-7v-.59H604.1c.51,0,.81-.39.81-.95V250c0-6.06-3.16-10-9.4-10"/><path class="c" d="M624,260.53c-1.45.12-3.54.25-5,.25-4.22,0-5.55-2.6-5.55-7.26v-3.07c0-4.57,1.37-7.17,5.55-7.17a32.57,32.57,0,0,1,5,.3Zm3-28.11h-2.18a.81.81,0,0,0-.81.81v7.19a31.08,31.08,0,0,0-5-.43c-6.23,0-9.3,3.76-9.3,10.46v3.07c0,6.41,2.94,10.55,9.3,10.55a40.5,40.5,0,0,0,7.86-.73c.77-.13.9-.43.9-1V233.23a.77.77,0,0,0-.77-.81"/><path class="c" d="M655,251.43l-4.23-2.52c-2-1.15-2.94-2-2.94-3.24,0-2.18,1.57-2.48,4-2.48s5.12.22,6.61.34h.13a.65.65,0,0,0,.73-.72V241.4a.83.83,0,0,0-.81-.86,40.23,40.23,0,0,0-6.66-.55c-4.4,0-7.73,1.24-7.73,5.68,0,2.69,1.75,4.52,4.35,6.1l4.31,2.57c2.44,1.44,3.21,2.26,3.21,3.54,0,2.3-1.45,3-4.23,3a67,67,0,0,1-6.7-.47h-.17a.69.69,0,0,0-.77.64v1.49c0,.47.34.73.89.86a33.37,33.37,0,0,0,6.75.64c4.78,0,8-1.84,8-6.19,0-2.52-1.15-4.36-4.69-6.45"/><path class="c" d="M678.8,240.46a30.94,30.94,0,0,0-5.33-.47c-5.85,0-9.1,4.1-9.1,10.38v3.33c0,6.27,3.29,10.37,9.1,10.37a30.57,30.57,0,0,0,5.33-.47c.69-.13.86-.39.86-.94v-1.54a.66.66,0,0,0-.73-.64h-.17a40.43,40.43,0,0,1-5.29.3c-3.46,0-5.34-2.3-5.34-7.08v-3.33c0-4.83,1.92-7.09,5.34-7.09a40.43,40.43,0,0,1,5.29.3h.17a.66.66,0,0,0,.73-.64V241.4c0-.6-.17-.81-.86-.94"/><path class="c" d="M688.29,232.42h-2.17a.85.85,0,0,0-.86.85v2.41a.85.85,0,0,0,.86.85h2.17a.86.86,0,0,0,.86-.85v-2.41a.86.86,0,0,0-.86-.85"/><path class="c" d="M688.21,240.29h-2.05a.85.85,0,0,0-.85.85v21.78a.86.86,0,0,0,.85.85h2.05a.86.86,0,0,0,.85-.85V241.14a.85.85,0,0,0-.85-.85"/><path class="c" d="M710.08,250.36H698.76V250c0-4.61,2-6.7,5.72-6.7s5.6,1.87,5.6,6.7ZM704.48,240c-6.1,0-9.47,3.88-9.47,10v3.84c0,7.94,4.78,10.25,9.69,10.25a38.63,38.63,0,0,0,7.64-.73c.68-.13.85-.43.85-1v-1.45a.6.6,0,0,0-.68-.6h-.21a58.45,58.45,0,0,1-7.6.47c-3.93,0-5.94-1.88-5.94-7v-.59h14.31c.51,0,.81-.39.81-.95V250c0-6.06-3.16-10-9.4-10"/><path class="c" d="M729.94,240a12.9,12.9,0,0,0-6.79,2v-.81a.82.82,0,0,0-.81-.85h-2.13a.82.82,0,0,0-.81.85v21.77a.85.85,0,0,0,.81.86h2.09a.88.88,0,0,0,.85-.86v-18a13.58,13.58,0,0,1,5.77-1.67c3.24,0,4.69,1.33,4.69,5.64v14a.87.87,0,0,0,.86.86h2a.86.86,0,0,0,.85-.86v-14c0-5.68-2.31-8.88-7.43-8.88"/><path class="c" d="M757.23,240.46a30.94,30.94,0,0,0-5.33-.47c-5.85,0-9.1,4.1-9.1,10.38v3.33c0,6.27,3.29,10.37,9.1,10.37a30.57,30.57,0,0,0,5.33-.47c.69-.13.86-.39.86-.94v-1.54a.66.66,0,0,0-.73-.64h-.17a40.43,40.43,0,0,1-5.29.3c-3.46,0-5.34-2.3-5.34-7.08v-3.33c0-4.83,1.92-7.09,5.34-7.09a40.43,40.43,0,0,1,5.29.3h.17a.66.66,0,0,0,.73-.64V241.4c0-.6-.17-.81-.86-.94"/><path class="c" d="M777.56,250.36H766.25V250c0-4.61,2-6.7,5.72-6.7s5.59,1.87,5.59,6.7ZM772,240c-6.11,0-9.48,3.88-9.48,10v3.84c0,7.94,4.78,10.25,9.69,10.25a38.63,38.63,0,0,0,7.64-.73c.69-.13.86-.43.86-1v-1.45c0-.43-.34-.6-.69-.6h-.21a58.22,58.22,0,0,1-7.6.47c-3.92,0-5.93-1.88-5.93-7v-.59h14.3c.51,0,.81-.39.81-.95V250c0-6.06-3.16-10-9.39-10"/><path class="c" d="M797.05,251.43l-4.23-2.52c-2-1.15-2.94-2-2.94-3.24,0-2.18,1.57-2.48,4-2.48s5.12.22,6.62.34h.12a.65.65,0,0,0,.73-.72V241.4a.83.83,0,0,0-.81-.86,40.23,40.23,0,0,0-6.66-.55c-4.4,0-7.73,1.24-7.73,5.68,0,2.69,1.75,4.52,4.35,6.1l4.31,2.57c2.44,1.44,3.21,2.26,3.21,3.54,0,2.3-1.45,3-4.23,3a67,67,0,0,1-6.7-.47h-.17a.69.69,0,0,0-.77.64v1.49c0,.47.34.73.89.86a33.37,33.37,0,0,0,6.75.64c4.78,0,8-1.84,8-6.19,0-2.52-1.15-4.36-4.69-6.45"/><rect class="d" x="194.02" y="168.27" width="24.56" height="24.57"/><rect class="d" x="194.02" y="119.26" width="24.56" height="24.57"/></svg>