<svg xmlns="http://www.w3.org/2000/svg" viewBox="0 0 900.58 370.22"><defs><style>.a{fill:none;}.b{fill:#5ab946;}.c{fill:#f58732;}.d{fill:#00a5d9;}</style></defs><title>Arteveldehogeschool</title><rect class="a" width="900.58" height="370.22"/><rect class="b" x="194.02" y="168.27" width="24.56" height="24.57"/><rect class="b" x="194.02" y="119.26" width="24.56" height="24.57"/><path class="c" d="M132.71,119.31a36.76,36.76,0,0,0,0,73.52h36.75V156.07a36.75,36.75,0,0,0-36.75-36.76m12.25,49H132.71A12.25,12.25,0,1,1,145,156.07Z"/><path class="d" d="M271.38,119.23a101.25,101.25,0,0,0-21.65,2.62,2.8,2.8,0,0,0-2.37,2.76v10.13a2,2,0,0,0,2.25,2.26h.62c3.88-.38,12.76-.88,20.77-.88,5.88,0,9.38,1.5,9.38,8.63v4.5h-6.75c-21.39,0-30.78,6.51-30.78,21.15v1.12c0,16.27,10.51,21.53,21.4,21.53a27.56,27.56,0,0,0,17.39-5.64v2a2.51,2.51,0,0,0,2.5,2.51h14a2.52,2.52,0,0,0,2.5-2.51V144.75c0-18.26-11.26-25.52-29.27-25.52m9.38,55.8a23.32,23.32,0,0,1-10.26,2.75c-5.26,0-7.88-1-7.88-6.26V170.4c0-6.13,2.25-9.14,11-9.14h7.13Z"/><path class="d" d="M318.34,191.92h15.14a2.63,2.63,0,0,0,2.5-2.63V140.37A33.71,33.71,0,0,1,352.11,136h1c1.12,0,1.87-1.25,1.87-2.37V121.73a2.51,2.51,0,0,0-2.5-2.5,26.78,26.78,0,0,0-16.89,6v-2.5a2.51,2.51,0,0,0-2.5-2.5H318.21a2.5,2.5,0,0,0-2.5,2.5v66.56a2.74,2.74,0,0,0,2.63,2.63"/><path class="d" d="M373.29,171.65c0,17.76,7.25,21.4,21,21.4a53.62,53.62,0,0,0,9.89-1,2.54,2.54,0,0,0,2.37-2.49v-9.76c0-1.38-1-2.13-2.62-2.13h-6.13c-3.76,0-4.13-.88-4.13-5.88V135.37h10.26a2.51,2.51,0,0,0,2.5-2.5V122.73a2.5,2.5,0,0,0-2.5-2.5H393.68V107a2.14,2.14,0,0,0-2.25-2.13h-.38l-15.26,2.63a2.69,2.69,0,0,0-2.5,2.51v10.25h-10a2.74,2.74,0,0,0-2.63,2.63v8.25a2.92,2.92,0,0,0,2.63,2.63l10,1.63Z"/><path class="d" d="M447.5,193.05a96.12,96.12,0,0,0,25.65-3c2.12-.5,2.63-1.38,2.63-3.38v-9.51c0-1.37-1-2-2.38-2H473c-5,.5-16.14,1.13-24,1.13-9.88,0-12.89-6.5-12.89-13.64v-.24H476c1.62,0,2.62-1.13,2.62-3v-7.25c0-18.9-10.38-32.9-30.9-32.9-19.89,0-31.65,12.75-31.65,32.9v8.75c0,24.16,16.26,32.16,31.4,32.16m-11.39-43.67c0-9.13,4.63-13.88,11.51-13.88s11.27,4.63,11.27,13.88v.51H436.11Z"/><path class="d" d="M518.35,193.05c14.65,0,15-2,18.14-13.14l15.77-56.8a1.64,1.64,0,0,0,.12-.75,2.1,2.1,0,0,0-2.13-2.12H533.74c-1.25,0-2.26,1.12-2.63,2.62l-10.76,49c-.37,1.88-1.13,2.63-2,2.63s-1.5-.75-1.88-2.63l-10.76-49c-.37-1.5-1.37-2.62-2.62-2.62H486.57a2,2,0,0,0-2,2.12,1.64,1.64,0,0,0,.12.75l15.64,56.8c3.13,11.14,3.95,13.14,18,13.14"/><path class="d" d="M589.58,193.05a96.12,96.12,0,0,0,25.65-3c2.12-.5,2.63-1.38,2.63-3.38v-9.51c0-1.37-1-2-2.38-2h-.38c-5,.5-16.14,1.13-24,1.13-9.88,0-12.89-6.5-12.89-13.64v-.24h39.92c1.62,0,2.62-1.13,2.62-3v-7.25c0-18.9-10.38-32.9-30.9-32.9-19.89,0-31.65,12.75-31.65,32.9v8.75c0,24.16,16.26,32.16,31.4,32.16m-11.39-43.67c0-9.13,4.63-13.88,11.51-13.88S601,140.13,601,149.38v.51H578.19Z"/><path class="d" d="M651.8,96H636.54a2.62,2.62,0,0,0-2.63,2.5v90.83a2.73,2.73,0,0,0,2.63,2.63H651.8a2.52,2.52,0,0,0,2.38-2.63V98.46A2.41,2.41,0,0,0,651.8,96"/><path class="d" d="M698.36,193.05A117.66,117.66,0,0,0,725,189.79c3.37-.74,3.87-1.62,3.87-3.62V98.47A2.62,2.62,0,0,0,726.25,96H711.12a2.51,2.51,0,0,0-2.5,2.51v21.64a85.09,85.09,0,0,0-10.26-.87c-21.15,0-31.4,12.37-31.4,32V161c0,20.27,11.13,32,31.4,32m-11.14-41.78c0-8.77,2.25-15.27,11.14-15.27a93.08,93.08,0,0,1,10.26.63v39a68.54,68.54,0,0,1-10.26.76c-8.89,0-11.14-6.51-11.14-15.39Z"/><path class="d" d="M773.72,119.23c-19.9,0-31.66,12.76-31.66,32.91v8.75c0,24.15,16.26,32.16,31.4,32.16a95.58,95.58,0,0,0,25.65-3c2.13-.5,2.63-1.37,2.63-3.38v-9.5c0-1.38-1-2-2.38-2H799c-5,.5-16.14,1.13-24,1.13-9.89,0-12.89-6.51-12.89-13.64v-.25H802c1.63,0,2.63-1.13,2.63-3v-7.25c0-18.9-10.39-32.91-30.9-32.91m11.13,30.66H762.08v-.51c0-9.13,4.63-13.89,11.51-13.89s11.26,4.64,11.26,13.89Z"/><path class="d" d="M519.53,230.07a25.13,25.13,0,0,0-9.26,1.88V220.42a1.16,1.16,0,0,0-1.15-1.21h-3a1.16,1.16,0,0,0-1.15,1.21v42.15a1.2,1.2,0,0,0,1.15,1.21h3a1.25,1.25,0,0,0,1.21-1.21V236.42a23.56,23.56,0,0,1,8.35-1.69c3.94,0,6.48,1.87,6.48,7.93v19.91a1.21,1.21,0,0,0,1.21,1.21h2.91a1.22,1.22,0,0,0,1.21-1.21V242.66c0-8.9-4.48-12.59-10.9-12.59"/><path class="d" d="M551.25,230.07c-8.9,0-13.44,5.87-13.44,14.76v4.6c0,8.9,4.54,14.77,13.44,14.77s13.49-5.87,13.49-14.77v-4.6c0-8.89-4.6-14.76-13.49-14.76m8.17,19.36c0,6.23-2.54,10.11-8.17,10.11s-8.12-3.94-8.12-10.11v-4.6c0-6.23,2.49-10.1,8.12-10.1s8.17,3.93,8.17,10.1Z"/><path class="d" d="M598.27,230.49H585c-10.42,0-13.44,5.14-13.44,10.33v.47a8.44,8.44,0,0,0,2.78,6.77,4.79,4.79,0,0,0-2.48,4.2v.06a4.8,4.8,0,0,0,2.78,4.56l.43.17a9.34,9.34,0,0,0-3.82,7.41V265c0,5.72,4.36,9.28,13.93,9.28,9.92,0,13.8-3.45,13.8-9v-.47c0-5.48-5.69-7.11-11.62-8.58l-9-2.21c-1.4-.35-1.88-.88-1.88-1.87a2.13,2.13,0,0,1,1.51-2,18.06,18.06,0,0,0,7,1.17c9.32,0,13.43-3.56,13.43-10v-.47c0-3.15-1-4.9-2.05-6l2.17-.41c.67-.12,1.09-.35,1.09-1.11v-1.52a1.37,1.37,0,0,0-1.39-1.28m-18.82,28,6.84,1.69c5.45,1.34,7.38,2.28,7.38,4.55v.47c0,3.21-1.57,5.08-8.47,5.08-6.72,0-8.72-2-8.72-5.31v-.53a6.88,6.88,0,0,1,3-5.95m13.74-17.22c0,3.5-1.64,6-8.17,6-7,0-8.18-3.38-8.18-6v-.47c0-3.27,1.4-6.24,8.18-6.24,6.53,0,8.17,2.74,8.17,6.24Z"/><path class="d" d="M618.54,230.06c-8.65,0-13.43,5.51-13.43,14.17v5.44c0,11.26,6.78,14.52,13.73,14.52a55.38,55.38,0,0,0,10.84-1c1-.19,1.21-.61,1.21-1.39v-2.06a.86.86,0,0,0-1-.85h-.3a83.73,83.73,0,0,1-10.78.67c-5.56,0-8.41-2.67-8.41-9.87v-.84h20.28c.72,0,1.15-.55,1.15-1.34v-3.26c0-8.6-4.48-14.17-13.32-14.17m7.93,14.71h-16v-.54c0-6.54,2.91-9.51,8.11-9.51s7.93,2.66,7.93,9.51Z"/><path class="d" d="M660.42,255.42c0-3.57-1.63-6.17-6.66-9.14l-6-3.57c-2.78-1.63-4.17-2.78-4.17-4.59,0-3.09,2.24-3.52,5.63-3.52s7.26.31,9.38.49h.18a.92.92,0,0,0,1-1v-2c0-.66-.36-1.09-1.15-1.21a57,57,0,0,0-9.43-.78c-6.24,0-11,1.75-11,8.05,0,3.81,2.49,6.41,6.18,8.65l6.11,3.63c3.45,2.06,4.54,3.2,4.54,5,0,3.27-2.06,4.3-6,4.3-2.18,0-6.6-.31-9.5-.67h-.25a1,1,0,0,0-1.09.91v2.12c0,.66.49,1,1.28,1.21a46.63,46.63,0,0,0,9.56.91c6.77,0,11.31-2.61,11.31-8.78"/><path class="d" d="M688.39,262.2V260a.93.93,0,0,0-1-.91h-.24a57.66,57.66,0,0,1-7.51.43c-4.9,0-7.57-3.27-7.57-10.05v-4.72c0-6.83,2.73-10,7.57-10a59.53,59.53,0,0,1,7.51.42h.24a.92.92,0,0,0,1-.91v-2.18c0-.84-.24-1.15-1.21-1.33a44.88,44.88,0,0,0-7.57-.66c-8.29,0-12.89,5.81-12.89,14.7v4.72c0,8.9,4.66,14.71,12.89,14.71a44.2,44.2,0,0,0,7.57-.67c1-.18,1.21-.54,1.21-1.33"/><path class="d" d="M710,230.07a25.13,25.13,0,0,0-9.26,1.88V220.42a1.16,1.16,0,0,0-1.15-1.21h-3a1.16,1.16,0,0,0-1.15,1.21v42.15a1.2,1.2,0,0,0,1.15,1.21h3a1.25,1.25,0,0,0,1.21-1.21V236.42a23.51,23.51,0,0,1,8.35-1.69c3.93,0,6.48,1.87,6.48,7.93v19.91a1.21,1.21,0,0,0,1.21,1.21h2.9a1.22,1.22,0,0,0,1.22-1.21V242.66c0-8.9-4.48-12.59-10.9-12.59"/><path class="d" d="M755.2,244.83c0-8.89-4.6-14.76-13.49-14.76s-13.44,5.87-13.44,14.76v4.6c0,8.9,4.54,14.77,13.44,14.77s13.49-5.87,13.49-14.77Zm-5.33,4.6c0,6.23-2.54,10.11-8.16,10.11s-8.11-3.94-8.11-10.11v-4.6c0-6.23,2.48-10.1,8.11-10.1s8.16,3.93,8.16,10.1Z"/><path class="d" d="M788.43,244.83c0-8.89-4.6-14.76-13.5-14.76s-13.44,5.87-13.44,14.76v4.6c0,8.9,4.54,14.77,13.44,14.77s13.5-5.87,13.5-14.77Zm-5.33,4.6c0,6.23-2.54,10.11-8.17,10.11s-8.11-3.94-8.11-10.11v-4.6c0-6.23,2.48-10.1,8.11-10.1s8.17,3.93,8.17,10.1Z"/><path class="d" d="M800.65,219.21H797.5a1.1,1.1,0,0,0-1.09,1.15v42.2a1.15,1.15,0,0,0,1.09,1.21h3.15a1.15,1.15,0,0,0,1.09-1.21v-42.2a1.1,1.1,0,0,0-1.09-1.15"/></svg>